<svg width="29" height="18" viewBox="0 0 29 18" fill="none" xmlns="http://www.w3.org/2000/svg">
<path d="M27.9455 0H1.05455C0.472136 0 0 0.460507 0 1.02857V16.9714C0 17.5395 0.472136 18 1.05455 18H27.9455C28.5279 18 29 17.5395 29 16.9714V1.02857C29 0.460507 28.5279 0 27.9455 0Z" fill="#F9F9F9"/>
<path d="M4 2H4.25328V10H4V2ZM4.50656 2H4.75985V10H4.50656V2ZM6.02733 2H6.28061V10H6.02733V2ZM10.9574 2H11.2107V10H10.9574V2ZM12.6057 2H12.8589V10H12.6057V2ZM14.2039 2H14.4571V10H14.2039V2ZM14.6158 2H14.8691V10H14.6158V2ZM15.0282 2H15.2815V10H15.0282V2ZM15.4918 2H15.7451V10H15.4918V2ZM15.9553 2H16.2086V10H15.9553V2ZM17.2438 2H17.4971V10H17.2438V2ZM20.4386 2H20.6918V10H20.4386V2ZM23.771 2H24.0243V10H23.771V2ZM24.6825 2H24.9358V10H24.6825V2ZM25.3413 2H25.5945V10H25.3413V2ZM25.7467 2H26V10H25.7467V2ZM7.69974 2H7.95302V10H7.69974V2ZM5.16531 2H5.62132V10H5.16531V2ZM8.17511 2H8.63113V10H8.17511V2ZM10.2885 2H10.7445V10H10.2885V2ZM11.3704 2H11.8265V10H11.3704V2ZM13.0708 2H13.5268V10H13.0708V2ZM17.9187 2H18.6279V10H17.9187V2ZM18.8452 2H19.4028V10H18.8452V2ZM19.8228 2H20.2788V10H19.8228V2ZM21.1156 2H21.876V10H21.1156V2ZM22.6046 2H23.365V10H22.6046V2ZM6.53389 2H7.44592V10H6.53389V2ZM8.89785 2H9.60715V10H8.89785V2Z" fill="#010101"/>
<path d="M4 15.9174V11.0871H5.43928C5.67978 11.0754 5.91966 11.1252 6.14445 11.2335C6.31677 11.3262 6.46204 11.484 6.56027 11.6849C6.65759 11.8752 6.70983 12.0964 6.71084 12.3226C6.71085 12.5289 6.6646 12.731 6.57741 12.9057C6.47925 13.0982 6.33944 13.2513 6.17446 13.347C6.38623 13.4155 6.57441 13.5693 6.7103 13.785C6.83607 13.9954 6.90194 14.2531 6.89731 14.5165C6.89876 14.735 6.85987 14.951 6.78371 15.1474C6.71929 15.3235 6.62249 15.4778 6.50132 15.5975C6.3752 15.7113 6.23241 15.7925 6.08122 15.8364C5.87849 15.895 5.67083 15.9222 5.46286 15.9174H4ZM4.50798 13.1169H5.33747C5.49948 13.1249 5.66162 13.1061 5.81973 13.0609C5.93543 13.0239 6.03802 12.9394 6.11123 12.8207C6.17938 12.6972 6.2138 12.5492 6.20929 12.3989C6.21165 12.2497 6.17984 12.1028 6.11766 11.9758C6.05831 11.8552 5.96611 11.766 5.85831 11.7248C5.66709 11.6694 5.47081 11.6467 5.27478 11.6573H4.50798V13.1169ZM4.50798 15.3478H5.46286C5.57836 15.3516 5.69393 15.344 5.80848 15.3249C5.91209 15.3037 6.01157 15.2579 6.10158 15.1899C6.18382 15.123 6.25056 15.0299 6.29502 14.92C6.34692 14.7952 6.37309 14.656 6.37111 14.5151C6.3747 14.347 6.33628 14.1818 6.26127 14.0427C6.18728 13.9092 6.07996 13.8106 5.95637 13.7627C5.77364 13.7005 5.58452 13.6732 5.39534 13.6817H4.50798V15.3478ZM7.63892 13.565C7.60683 12.8767 7.79103 12.2002 8.15173 11.6816C8.32171 11.4568 8.52761 11.2799 8.75584 11.1627C8.98408 11.0454 9.22946 10.9904 9.4758 11.0014C9.81222 10.9955 10.1435 11.1062 10.4334 11.3212C10.7152 11.531 10.9413 11.8412 11.0833 12.2126C11.2365 12.6172 11.313 13.0609 11.3068 13.509C11.313 13.9645 11.2324 14.4153 11.0715 14.8235C10.9257 15.195 10.6929 15.5012 10.4044 15.7008C10.1193 15.8987 9.79869 16.0014 9.47312 15.999C9.13243 16.0061 8.79705 15.8922 8.50538 15.6704C8.22473 15.4561 7.99993 15.1432 7.85862 14.7702C7.71305 14.3949 7.63789 13.9826 7.63892 13.565ZM8.16244 13.5751C8.14063 14.0777 8.27518 14.5713 8.53754 14.951C8.65585 15.1142 8.80059 15.2436 8.96199 15.3303C9.12339 15.417 9.29769 15.4591 9.47312 15.4538C9.64961 15.4594 9.82498 15.4169 9.98721 15.3292C10.1494 15.2415 10.2947 15.1107 10.413 14.9456C10.6777 14.5426 10.8101 14.0275 10.7833 13.5056C10.7903 13.1522 10.7371 12.8011 10.6273 12.4758C10.5306 12.1953 10.3693 11.9577 10.1644 11.7936C9.95956 11.6315 9.72195 11.5474 9.48009 11.5513C9.30869 11.5481 9.13847 11.5876 8.97927 11.6676C8.82007 11.7477 8.67503 11.8666 8.55254 12.0176C8.40761 12.2307 8.29834 12.4784 8.23131 12.7459C8.16428 13.0134 8.14085 13.2952 8.16244 13.5744V13.5751ZM12.139 15.9174V11.0871H12.6464V15.3472H14.5352V15.9174H12.139ZM15.3487 15.9174V11.0871H18.1222V11.6573H15.8561V13.1365H17.9781V13.7033H15.8561V15.3472H18.2111V15.9174H15.3487ZM20.0866 15.9174V11.6573H18.8225V11.0871H21.8629V11.6573H20.594V15.9174H20.0866ZM22.3307 13.565C22.2989 12.8765 22.4835 12.2 22.8446 11.6816C23.0146 11.4568 23.2205 11.2799 23.4487 11.1627C23.6769 11.0454 23.9223 10.9904 24.1687 11.0014C24.5051 10.9955 24.8363 11.1062 25.1262 11.3212C25.408 11.531 25.6342 11.8412 25.7762 12.2126C25.9294 12.6172 26.0058 13.0609 25.9997 13.509C26.0059 13.9645 25.9252 14.4153 25.7644 14.8235C25.6181 15.1957 25.3845 15.5022 25.0951 15.7014C24.81 15.8994 24.4894 16.0021 24.1638 15.9997C23.8229 16.0067 23.4873 15.8926 23.1956 15.6704C22.9155 15.4558 22.6913 15.143 22.5504 14.7702C22.4048 14.3949 22.3297 13.9826 22.3307 13.565ZM22.8542 13.5751C22.8324 14.0777 22.967 14.5713 23.2293 14.951C23.3476 15.1142 23.4924 15.2436 23.6538 15.3303C23.8152 15.417 23.9895 15.4591 24.1649 15.4538C24.3419 15.4601 24.5179 15.418 24.6807 15.3304C24.8435 15.2428 24.9893 15.1117 25.108 14.9463C25.3727 14.5433 25.5051 14.0282 25.4783 13.5063C25.4838 13.1525 25.429 12.8013 25.3175 12.4765C25.2207 12.196 25.0595 11.9584 24.8546 11.7943C24.6498 11.6322 24.4121 11.5481 24.1703 11.552C23.9989 11.5487 23.8287 11.5883 23.6695 11.6683C23.5103 11.7483 23.3652 11.8673 23.2427 12.0183C23.0981 12.2314 22.989 12.479 22.9222 12.7464C22.8553 13.0138 22.832 13.2954 22.8537 13.5744L22.8542 13.5751Z" fill="black"/>
</svg>
