<svg width="148" height="133" viewBox="0 0 148 133" fill="none" xmlns="http://www.w3.org/2000/svg">
<path d="M13.875 29.0938H78.625" stroke="white" stroke-width="9" stroke-miterlimit="10" stroke-linecap="round" stroke-linejoin="round"/>
<path d="M13.875 95.5938H78.625" stroke="white" stroke-width="9" stroke-miterlimit="10" stroke-linecap="round" stroke-linejoin="round"/>
<path d="M41.625 108.062H50.875" stroke="white" stroke-width="9" stroke-miterlimit="10" stroke-linecap="round" stroke-linejoin="round"/>
<path d="M92.5 95.5938V54.0312C92.5 46.9656 86.4875 41.5625 78.625 41.5625H50.875V83.125H78.625C86.4875 83.125 92.5 88.5281 92.5 95.5938Z" stroke="white" stroke-width="9" stroke-miterlimit="10" stroke-linecap="round" stroke-linejoin="round"/>
<path d="M92.5 95.5938V54.0312C92.5 46.9656 98.5125 41.5625 106.375 41.5625H134.125V83.125H106.375C98.5125 83.125 92.5 88.5281 92.5 95.5938Z" stroke="white" stroke-width="9" stroke-miterlimit="10" stroke-linecap="round" stroke-linejoin="round"/>
<path d="M83.125 83.125C83.125 80.6397 81.1103 78.625 78.625 78.625C76.1397 78.625 74.125 80.6397 74.125 83.125H83.125ZM74.125 83.125V112.219H83.125V83.125H74.125ZM74.125 112.219C74.125 113.865 72.4416 116.031 69.375 116.031V125.031C76.4834 125.031 83.125 119.716 83.125 112.219H74.125ZM69.375 116.031H23.125V125.031H69.375V116.031ZM23.125 116.031C20.0584 116.031 18.375 113.865 18.375 112.219H9.375C9.375 119.716 16.0166 125.031 23.125 125.031V116.031ZM18.375 112.219V20.7812H9.375V112.219H18.375ZM18.375 20.7812C18.375 19.1349 20.0584 16.9688 23.125 16.9688V7.96875C16.0166 7.96875 9.375 13.2839 9.375 20.7812H18.375ZM23.125 16.9688H69.375V7.96875H23.125V16.9688ZM69.375 16.9688C72.4416 16.9688 74.125 19.1349 74.125 20.7812H83.125C83.125 13.2839 76.4834 7.96875 69.375 7.96875V16.9688ZM74.125 20.7812V41.5625H83.125V20.7812H74.125Z" fill="white"/>
</svg>
